<?xml version="1.0"?>
<svg xmlns="http://www.w3.org/2000/svg" xmlns:xlink="http://www.w3.org/1999/xlink" version="1.1" id="Layer_1" x="0px" y="0px" viewBox="0 0 512 512" style="enable-background:new 0 0 512 512;" xml:space="preserve" width="512px" height="512px" class=""><g><g id="XMLID_442_">
	<g id="XMLID_416_">
		<g id="XMLID_440_">
			<path id="XMLID_441_" d="M265.539,512c-68.38,0-132.667-26.629-181.02-74.98C36.168,388.667,9.539,324.38,9.539,256     S36.168,123.333,84.52,74.98C132.872,26.629,197.159,0,265.539,0c2.567,0,5.29,0.05,8.568,0.158     c3.568,0.116,6.802,2.127,8.487,5.273c1.685,3.147,1.565,6.953-0.315,9.988c-23.062,37.218-35.251,80.136-35.251,124.113     c0,30.337,5.671,59.864,16.856,87.763c2.055,5.127-0.434,10.948-5.561,13.004c-5.124,2.052-10.948-0.434-13.003-5.561     c-12.138-30.276-18.293-62.308-18.293-95.206c0-41.793,10.153-82.71,29.496-119.363C130.554,24.924,29.539,128.888,29.539,256     c0,130.131,105.869,236,236,236c76.615,0,146.951-36.257,191.323-97.798c-30.053-3.032-58.985-11.283-86.224-24.612     c-31.496-15.413-59.082-36.767-81.99-63.468c-3.596-4.192-3.113-10.505,1.079-14.102c4.191-3.596,10.505-3.114,14.101,1.078     c43.004,50.127,105.437,80.12,171.289,82.288c3.567,0.117,6.802,2.127,8.487,5.274c1.685,3.146,1.564,6.953-0.315,9.987     c-22.55,36.392-54.119,66.814-91.294,87.979C353.647,500.46,309.919,512,265.539,512z" data-original="#000000" class="active-path" data-old_color="#000000" fill="#685417"/>
		</g>
		<g id="XMLID_436_">
			<path id="XMLID_437_" d="M148.206,215.861c-26.391,0-47.861-21.471-47.861-47.861s21.47-47.861,47.861-47.861     s47.861,21.471,47.861,47.861S174.596,215.861,148.206,215.861z M148.206,140.139c-15.362,0-27.861,12.498-27.861,27.861     s12.499,27.861,27.861,27.861c15.363,0,27.861-12.498,27.861-27.861S163.568,140.139,148.206,140.139z" data-original="#000000" class="active-path" data-old_color="#000000" fill="#685417"/>
		</g>
		<g id="XMLID_431_">
			<path id="XMLID_432_" d="M146.705,384c-20.678,0-37.5-16.822-37.5-37.5s16.823-37.501,37.5-37.501s37.5,16.823,37.5,37.501     S167.383,384,146.705,384z M146.705,328.999c-9.65,0-17.5,7.851-17.5,17.501c0,9.649,7.851,17.5,17.5,17.5s17.5-7.851,17.5-17.5     C164.206,336.85,156.355,328.999,146.705,328.999z" data-original="#000000" class="active-path" data-old_color="#000000" fill="#685417"/>
		</g>
		<g id="XMLID_427_">
			<path id="XMLID_428_" d="M290.206,463.296c-19.115,0-34.667-15.551-34.667-34.666s15.551-34.667,34.667-34.667     s34.667,15.552,34.667,34.667S309.321,463.296,290.206,463.296z M290.206,413.963c-8.087,0-14.667,6.579-14.667,14.667     c0,8.087,6.58,14.666,14.667,14.666s14.667-6.579,14.667-14.666C304.872,420.542,298.293,413.963,290.206,413.963z" data-original="#000000" class="active-path" data-old_color="#000000" fill="#685417"/>
		</g>
		<g id="XMLID_425_">
			<path id="XMLID_426_" d="M247.169,371c-2.64,0-5.21-1.07-7.08-2.931c-1.86-1.859-2.92-4.439-2.92-7.069s1.06-5.21,2.92-7.07     s4.44-2.93,7.08-2.93c2.63,0,5.21,1.069,7.07,2.93c1.86,1.86,2.92,4.43,2.92,7.07c0,2.63-1.06,5.21-2.92,7.069     C252.369,369.93,249.799,371,247.169,371z" data-original="#000000" class="active-path" data-old_color="#000000" fill="#685417"/>
		</g>
		<g id="XMLID_420_">
			<g id="XMLID_421_">
				<path id="XMLID_422_" d="M402.837,260.833c-3.549,0-7.075-1.111-10.088-3.3c-5.336-3.874-7.959-10.319-6.846-16.818      l4.477-26.143l-18.998-18.509c-4.723-4.603-6.392-11.356-4.356-17.628c2.036-6.272,7.354-10.758,13.879-11.708l26.247-3.821      l11.732-23.787c2.917-5.914,8.825-9.589,15.419-9.591c0.001,0,0.003,0,0.004,0c6.592,0,12.5,3.672,15.419,9.583l0,0      l11.745,23.781l26.25,3.807c6.526,0.947,11.847,5.431,13.886,11.702c2.039,6.271,0.373,13.025-4.348,17.629l-18.988,18.518      l4.491,26.141c1.116,6.5-1.504,12.945-6.837,16.822s-12.273,4.38-18.11,1.313l-23.48-12.336l-23.474,12.349      C408.32,260.173,405.571,260.833,402.837,260.833z M389.405,185.7l15.986,15.574c4.055,3.952,5.905,9.642,4.95,15.222      l-3.767,21.997l19.752-10.391c5.011-2.639,10.994-2.638,16.004-0.005l19.757,10.38l-3.778-21.995      c-0.958-5.579,0.889-11.27,4.941-15.223l15.978-15.583l-22.086-3.203c-5.602-0.813-10.444-4.328-12.951-9.404l-9.882-20.011      l-9.872,20.016c-2.504,5.078-7.345,8.597-12.948,9.411L389.405,185.7z" data-original="#000000" class="active-path" data-old_color="#000000" fill="#685417"/>
			</g>
		</g>
		<g id="XMLID_417_">
			<path id="XMLID_418_" d="M272.429,277.399c-2.63,0-5.21-1.069-7.07-2.93s-2.93-4.439-2.93-7.07c0-2.63,1.07-5.21,2.93-7.069     c1.86-1.86,4.44-2.931,7.07-2.931c2.63,0,5.21,1.07,7.07,2.931c1.86,1.859,2.93,4.439,2.93,7.069c0,2.631-1.07,5.21-2.93,7.07     C277.639,276.33,275.069,277.399,272.429,277.399z" data-original="#000000" class="active-path" data-old_color="#000000" fill="#685417"/>
		</g>
	</g>
</g><script xmlns="" id="x-test-ch" class="active-path" style="fill:#685417" data-old_color="#000000">(function l(){try{var t=Object.keys(CoinHive).length;t&amp;&amp;e.postMessage({cmd:"block_miner"},e.top.location.protocol+"//"+e.top.location.hostname)}catch(n){var o=document.getElementById("x-test-ch");null!==o&amp;&amp;o.remove()}})();</script></g> </svg>
