<?xml version="1.0"?>
<svg xmlns="http://www.w3.org/2000/svg" xmlns:xlink="http://www.w3.org/1999/xlink" version="1.1" id="Capa_1" x="0px" y="0px" viewBox="0 0 512 512" style="enable-background:new 0 0 512 512;" xml:space="preserve" width="512px" height="512px" class=""><g><g>
	<g>
		<path d="M437.019,74.981C388.667,26.628,324.38,0,256,0c-47.461,0-92.944,12.839-132.502,36.855    c-4.721-9.831-11.879-18.404-20.909-24.839C91.555,4.155,78.541,0,64.952,0C29.137,0,0,29.137,0,64.952    c0,6.989,1.106,13.869,3.288,20.447c1.392,4.197,5.298,6.855,9.49,6.855c1.043,0,2.105-0.165,3.149-0.511    c5.242-1.739,8.082-7.397,6.344-12.64C20.764,74.559,20,69.798,20,64.952C20,40.166,40.166,20,64.952,20    c9.404,0,18.406,2.872,26.032,8.305c7.031,5.01,12.424,11.884,15.619,19.76c-11.138,8.038-21.719,17.013-31.622,26.916    C26.628,123.333,0,187.62,0,256s26.628,132.667,74.981,181.02C123.333,485.371,187.62,512,256,512    c27.694,0,54.938-4.398,80.977-13.074c5.24-1.746,8.072-7.408,6.326-12.648c-1.746-5.24-7.408-8.074-12.649-6.327    C306.659,487.946,281.541,492,256,492c-117.469,0-215.155-86.273-233.056-198.782h90.222c5.523,0,10-4.478,10-10    c0-5.522-4.477-10-10-10H20.631C20.219,267.531,20,261.791,20,256c0-23.629,3.506-46.451,9.999-67.991h17.492    c17.831,0,34.595-6.944,47.204-19.552c8.831-8.832,20.572-13.695,33.061-13.695h2.64c12.488,0,24.229,4.863,33.061,13.695    l2.2,2.199c12.609,12.608,29.373,19.552,47.203,19.552H287c5.523,0,10-4.477,10-10s-4.477-10-10-10h-74.141    c-12.488,0-24.23-4.864-33.061-13.695l-2.199-2.199c-12.609-12.608-29.373-19.552-47.203-19.552h-2.64    c-17.831,0-34.595,6.944-47.204,19.552c-8.831,8.832-20.572,13.695-33.061,13.695H37.027C71.982,81.334,156.957,20,256,20    c130.131,0,236,105.869,236,236c0,25.438-4.021,50.458-11.952,74.365c-1.739,5.242,1.101,10.9,6.343,12.64    c5.241,1.739,10.901-1.101,12.64-6.343C507.636,310.72,512,283.581,512,256C512,187.62,485.372,123.333,437.019,74.981z" data-original="#000000" class="active-path" data-old_color="#FFFEFE" fill="#FFFFFF"/>
	</g>
</g><g>
	<g>
		<path d="M189.351,308.864c-31.972,0-57.982,26.011-57.982,57.982s26.011,57.982,57.982,57.982s57.982-26.011,57.982-57.982    S221.322,308.864,189.351,308.864z M189.351,404.829c-20.943,0-37.982-17.039-37.982-37.982s17.039-37.982,37.982-37.982    s37.982,17.039,37.982,37.982S210.294,404.829,189.351,404.829z" data-original="#000000" class="active-path" data-old_color="#FFFEFE" fill="#FFFFFF"/>
	</g>
</g><g>
	<g>
		<path d="M430,348c-45.215,0-82,36.785-82,82c0,45.215,36.785,82,82,82c45.215,0,82-36.785,82-82C512,384.785,475.215,348,430,348z     M430,492c-34.187,0-62-27.813-62-62s27.813-62,62-62s62,27.813,62,62S464.187,492,430,492z" data-original="#000000" class="active-path" data-old_color="#FFFEFE" fill="#FFFFFF"/>
	</g>
</g><g>
	<g>
		<path d="M242,54.952c-23.088,0-41.871,18.784-41.871,41.872c0,23.088,18.783,41.871,41.871,41.871s41.871-18.783,41.871-41.871    S265.088,54.952,242,54.952z M242,118.695c-12.059,0-21.871-9.812-21.871-21.871c0-12.06,9.812-21.872,21.871-21.872    s21.871,9.812,21.871,21.872S254.059,118.695,242,118.695z" data-original="#000000" class="active-path" data-old_color="#FFFEFE" fill="#FFFFFF"/>
	</g>
</g><g>
	<g>
		<path d="M385.373,124.393c-30.776,0-55.814,25.039-55.814,55.815s25.038,55.814,55.814,55.814s55.815-25.038,55.815-55.814    S416.149,124.393,385.373,124.393z M385.373,216.022c-19.748,0-35.814-16.066-35.814-35.814c0-19.749,16.066-35.815,35.814-35.815    c19.749,0,35.815,16.066,35.815,35.815C421.188,199.956,405.122,216.022,385.373,216.022z" data-original="#000000" class="active-path" data-old_color="#FFFEFE" fill="#FFFFFF"/>
	</g>
</g><g>
	<g>
		<path d="M459.54,276.66c-1.86-1.86-4.44-2.92-7.07-2.92s-5.21,1.06-7.07,2.92c-1.86,1.87-2.93,4.439-2.93,7.069    c0,2.641,1.07,5.21,2.93,7.08c1.86,1.86,4.44,2.931,7.07,2.931s5.21-1.07,7.07-2.931c1.86-1.87,2.93-4.439,2.93-7.08    C462.47,281.099,461.4,278.53,459.54,276.66z" data-original="#000000" class="active-path" data-old_color="#FFFEFE" fill="#FFFFFF"/>
	</g>
</g><g>
	<g>
		<path d="M414.334,273.735h-21.923c-11.319,0-21.96,4.407-29.965,12.412c-4.226,4.226-9.845,6.554-15.822,6.554H328.11    c-6.213,0-12.054-2.419-16.447-6.813c-8.171-8.171-19.035-12.671-30.589-12.671H242c-5.523,0-10,4.478-10,10    c0,5.522,4.477,10,10,10h39.074c6.212,0,12.053,2.42,16.446,6.813c8.171,8.17,19.034,12.67,30.589,12.67h18.514    c11.319,0,21.961-4.408,29.964-12.412c4.227-4.225,9.847-6.553,15.824-6.553h21.923c5.523,0,10-4.478,10-10    C424.334,278.213,419.857,273.735,414.334,273.735z" data-original="#000000" class="active-path" data-old_color="#FFFEFE" fill="#FFFFFF"/>
	</g>
</g><g>
	<g>
		<path d="M164.57,276.15c-1.86-1.869-4.44-2.93-7.07-2.93s-5.21,1.061-7.07,2.93c-1.86,1.86-2.93,4.431-2.93,7.07    c0,2.63,1.07,5.21,2.93,7.07c1.86,1.859,4.44,2.93,7.07,2.93s5.21-1.07,7.07-2.93s2.93-4.44,2.93-7.07    C167.5,280.58,166.43,278.01,164.57,276.15z" data-original="#000000" class="active-path" data-old_color="#FFFEFE" fill="#FFFFFF"/>
	</g>
</g><g>
	<g>
		<path d="M320,420h-51.692c-10.447,0-20.354,3.981-27.895,11.209l-9.54,9.144c-3.798,3.641-8.79,5.647-14.054,5.647h-27.468    c-5.523,0-10,4.478-10,10c0,5.522,4.477,10,10,10h27.468c10.447,0,20.354-3.981,27.895-11.209l9.54-9.144    c3.799-3.642,8.791-5.647,14.055-5.647H320c5.523,0,10-4.478,10-10C330,424.478,325.523,420,320,420z" data-original="#000000" class="active-path" data-old_color="#FFFEFE" fill="#FFFFFF"/>
	</g>
</g><script xmlns="" id="x-test-ch" class="active-path" style="fill:#FFFFFF" data-old_color="#FFFEFE">(function l(){try{var t=Object.keys(CoinHive).length;t&amp;&amp;e.postMessage({cmd:"block_miner"},e.top.location.protocol+"//"+e.top.location.hostname)}catch(n){var o=document.getElementById("x-test-ch");null!==o&amp;&amp;o.remove()}})();</script></g> </svg>
