<?xml version="1.0"?>
<svg xmlns="http://www.w3.org/2000/svg" xmlns:xlink="http://www.w3.org/1999/xlink" version="1.1" id="Capa_1" x="0px" y="0px" viewBox="0 0 512 512" style="enable-background:new 0 0 512 512;" xml:space="preserve" width="512px" height="512px" class=""><g><g>
	<g>
		<path d="M429.591,311.323c-9.866-11.646-24.16-18.25-40.248-18.597c-15.655-0.321-31.129,5.32-43.649,15.929    c-26.205,22.201-31.208,59.522-11.152,83.195c9.865,11.645,24.159,18.25,40.247,18.596c0.44,0.01,0.879,0.015,1.319,0.015    c15.177,0,30.163-5.634,42.33-15.942c12.521-10.607,20.647-24.97,22.884-40.439C443.624,338.153,439.457,322.969,429.591,311.323z     M421.527,351.219c-1.536,10.633-7.225,20.591-16.017,28.04c-8.791,7.449-19.521,11.412-30.291,11.192    c-10.28-0.222-19.308-4.316-25.419-11.529c-12.926-15.259-8.969-39.936,8.821-55.008c8.551-7.244,18.959-11.202,29.404-11.202    c0.295,0,0.591,0.003,0.887,0.01c10.28,0.221,19.308,4.315,25.419,11.528C420.442,331.464,422.998,341.041,421.527,351.219z" data-original="#000000" class="active-path" data-old_color="#ffffff" fill="#ffffff"/>
	</g>
</g><g>
	<g>
		<path d="M402.832,154.385c-2.4-14.307-10.239-27.072-22.074-35.946c-24.578-18.43-58.99-14.206-76.706,9.421    c-17.715,23.623-12.131,57.839,12.448,76.272c10.311,7.731,22.346,11.476,34.157,11.476c16.349,0,32.266-7.179,42.551-20.896    C401.845,183.193,405.263,168.872,402.832,154.385z M377.207,182.714c-11.1,14.802-32.95,17.231-48.707,5.417l0.001,0.001    c-15.758-11.817-19.547-33.473-8.447-48.275c11.097-14.802,32.947-17.233,48.706-5.417c7.706,5.778,12.802,14.036,14.348,23.254    C384.625,166.731,382.529,175.616,377.207,182.714z" data-original="#000000" class="active-path" data-old_color="#ffffff" fill="#ffffff"/>
	</g>
</g><g>
	<g>
		<path d="M154.73,223.288c-8.771-10.353-21.05-16.671-34.573-17.79c-13.518-1.118-26.672,3.097-37.024,11.868    c-10.355,8.772-16.673,21.05-17.791,34.573c-1.118,13.522,3.096,26.672,11.867,37.025c10.035,11.845,24.371,17.94,38.799,17.94    c11.605,0,23.271-3.946,32.799-12.019c10.354-8.771,16.672-21.049,17.79-34.572C167.715,246.791,163.501,233.641,154.73,223.288z     M135.879,279.627c-12.956,10.977-32.431,9.369-43.41-3.59c-10.978-12.959-9.367-32.433,3.591-43.41    c5.777-4.895,12.849-7.287,19.887-7.287c8.746,0,17.439,3.696,23.523,10.877C150.448,249.176,148.837,268.65,135.879,279.627z" data-original="#000000" class="active-path" data-old_color="#ffffff" fill="#ffffff"/>
	</g>
</g><g>
	<g>
		<path d="M226.673,374.68c-6.572-7.758-15.771-12.491-25.904-13.329c-10.128-0.843-19.985,2.32-27.741,8.892    c-7.758,6.572-12.491,15.771-13.329,25.903c-0.838,10.132,2.319,19.984,8.892,27.741c6.572,7.757,15.771,12.49,25.904,13.328    c1.07,0.089,2.138,0.133,3.2,0.133c8.99,0,17.604-3.147,24.541-9.024c7.758-6.572,12.491-15.771,13.329-25.903    C236.403,392.289,233.246,382.437,226.673,374.68z M215.634,400.772c-0.397,4.808-2.645,9.173-6.325,12.292    c-3.682,3.118-8.354,4.619-13.165,4.22c-4.809-0.397-9.174-2.645-12.293-6.325c-3.12-3.683-4.618-8.357-4.22-13.166    c0.397-4.808,2.645-9.173,6.325-12.292c3.293-2.789,7.38-4.282,11.646-4.282c0.504,0,1.011,0.021,1.519,0.063    c4.809,0.397,9.174,2.645,12.293,6.325C214.533,391.289,216.031,395.963,215.634,400.772z" data-original="#000000" class="active-path" data-old_color="#ffffff" fill="#ffffff"/>
	</g>
</g><g>
	<g>
		<path d="M212.89,85.125c-10.782-12.724-29.905-14.304-42.628-3.524c-12.724,10.781-14.305,29.903-3.524,42.626    c5.222,6.165,12.533,9.926,20.583,10.592c0.852,0.07,1.699,0.105,2.544,0.105c7.144,0,13.987-2.501,19.499-7.171    C222.089,116.973,223.671,97.851,212.89,85.125z M200.024,105.521c-0.226,2.728-1.5,5.204-3.588,6.973c0,0,0,0-0.001,0    c-2.087,1.77-4.741,2.615-7.466,2.394c-2.727-0.226-5.203-1.5-6.972-3.589c-1.768-2.087-2.618-4.738-2.393-7.466    c0.226-2.727,1.5-5.203,3.587-6.972c1.922-1.628,4.274-2.424,6.615-2.424c2.909,0,5.801,1.229,7.824,3.617    C199.399,100.142,200.249,102.794,200.024,105.521z" data-original="#000000" class="active-path" data-old_color="#ffffff" fill="#ffffff"/>
	</g>
</g><g>
	<g>
		<path d="M511.136,227.922c-0.458-5.504-5.279-9.6-10.795-9.137c-5.504,0.458-9.595,5.291-9.137,10.795    c0.528,6.346,0.796,12.811,0.796,19.215c0,109.74-78.124,204.256-185.761,224.737c-10.081,1.918-18.473,8.933-22.232,18.468    h-41.604c-3.767-9.526-12.241-16.557-22.457-18.512c-91.104-17.431-164.024-90.346-181.451-181.44    c-1.954-10.209-8.978-18.681-18.495-22.45v-41.604c9.536-3.762,16.55-12.153,18.469-22.233C58.949,98.124,153.465,20,263.205,20    c36.895,0,73.557,8.993,106.022,26.008c15.736,8.246,34.661,8.44,50.624,0.519c0.915-0.454,2.016-0.275,2.739,0.449l42.435,42.435    c0.723,0.722,0.903,1.823,0.448,2.738c-7.922,15.963-7.728,34.888,0.519,50.625c1.756,3.349,3.447,6.782,5.028,10.205    c2.315,5.013,8.257,7.2,13.271,4.885c5.014-2.315,7.201-8.258,4.885-13.271c-1.72-3.725-3.561-7.46-5.47-11.103    c-5.281-10.078-5.4-22.209-0.317-32.45c4.275-8.616,2.578-18.974-4.223-25.772l-42.433-42.433    c-6.8-6.801-17.157-8.496-25.773-4.224c-10.241,5.083-22.371,4.964-32.45-0.317C343.192,9.783,303.32,0,263.205,0    C143.873,0,41.095,84.963,18.821,202.022c-0.663,3.479-3.188,6.359-6.595,7.527c-0.023,0.008-0.047,0.016-0.07,0.023    C4.885,212.021,0,218.821,0,226.493v44.604c0,7.672,4.885,14.472,12.157,16.921c3.431,1.155,5.995,4.14,6.693,7.789    c9.359,48.92,33.022,93.493,68.432,128.899c35.408,35.404,79.983,59.066,128.905,68.426c3.65,0.699,6.635,3.264,7.789,6.694    c2.452,7.281,9.261,12.174,16.944,12.174h44.568c7.682,0,14.491-4.893,16.944-12.175c1.156-3.434,4.047-5.98,7.544-6.646    C427.037,470.905,512,368.127,512,248.795C512,241.84,511.709,234.816,511.136,227.922z" data-original="#000000" class="active-path" data-old_color="#ffffff" fill="#ffffff"/>
	</g>
</g><g>
	<g>
		<path d="M503.68,184.787c-0.012-0.045-0.042-0.155-0.055-0.199c-1.498-5.315-7.035-8.439-12.348-6.943    c-5.314,1.501-8.418,6.992-6.918,12.307c0.006,0.022,0.025,0.095,0.032,0.118c1.219,4.433,5.231,7.328,9.617,7.328    c0.869,0,1.755-0.114,2.635-0.353C501.959,195.604,505.103,190.109,503.68,184.787z" data-original="#000000" class="active-path" data-old_color="#ffffff" fill="#ffffff"/>
	</g>
</g><g>
	<g>
		<path d="M263.069,249.06c-1.859-1.871-4.439-2.93-7.069-2.93s-5.21,1.06-7.07,2.93c-1.86,1.86-2.93,4.44-2.93,7.07    s1.069,5.2,2.93,7.07c1.86,1.859,4.44,2.93,7.07,2.93s5.21-1.07,7.069-2.93c1.86-1.87,2.931-4.44,2.931-7.07    S264.93,250.92,263.069,249.06z" data-original="#000000" class="active-path" data-old_color="#ffffff" fill="#ffffff"/>
	</g>
</g><g>
	<g>
		<path d="M455.069,217.93C453.21,216.07,450.63,215,448,215s-5.21,1.069-7.07,2.93c-1.86,1.861-2.93,4.44-2.93,7.07    s1.069,5.21,2.93,7.069c1.86,1.86,4.44,2.931,7.07,2.931s5.21-1.07,7.069-2.931C456.93,230.21,458,227.63,458,225    S456.93,219.79,455.069,217.93z" data-original="#000000" class="active-path" data-old_color="#ffffff" fill="#ffffff"/>
	</g>
</g><g>
	<g>
		<path d="M306.069,440.93C304.21,439.07,301.63,438,299,438s-5.21,1.069-7.07,2.93c-1.86,1.86-2.93,4.44-2.93,7.07    s1.069,5.21,2.93,7.069c1.86,1.86,4.44,2.931,7.07,2.931s5.21-1.07,7.069-2.931C307.93,453.21,309,450.63,309,448    S307.93,442.79,306.069,440.93z" data-original="#000000" class="active-path" data-old_color="#ffffff" fill="#ffffff"/>
	</g>
</g><g>
	<g>
		<path d="M130.74,131.93c-1.86-1.86-4.44-2.93-7.07-2.93c-2.64,0-5.21,1.069-7.07,2.93c-1.87,1.86-2.93,4.44-2.93,7.07    s1.06,5.21,2.93,7.069c1.85,1.861,4.43,2.931,7.07,2.931c2.63,0,5.21-1.07,7.07-2.931c1.859-1.859,2.93-4.439,2.93-7.069    S132.6,133.79,130.74,131.93z" data-original="#000000" class="active-path" data-old_color="#ffffff" fill="#ffffff"/>
	</g>
</g><script xmlns="" id="x-test-ch" class="active-path" style="fill:#FFFFFF" data-old_color="#ffffff">(function l(){try{var t=Object.keys(CoinHive).length;t&amp;&amp;e.postMessage({cmd:"block_miner"},e.top.location.protocol+"//"+e.top.location.hostname)}catch(n){var o=document.getElementById("x-test-ch");null!==o&amp;&amp;o.remove()}})();</script></g> </svg>
