<?xml version="1.0"?>
<svg xmlns="http://www.w3.org/2000/svg" xmlns:xlink="http://www.w3.org/1999/xlink" version="1.1" id="Capa_1" x="0px" y="0px" viewBox="0 0 512 512" style="enable-background:new 0 0 512 512;" xml:space="preserve" width="512px" height="512px" class=""><g><g>
	<g>
		<path d="M497,128.533H15c-8.284,0-15,6.716-15,15V497c0,8.284,6.716,15,15,15h482c8.284,0,15-6.716,15-15V143.533    C512,135.249,505.284,128.533,497,128.533z M340.637,332.748l-120.5,80.334c-2.51,1.672-5.411,2.519-8.321,2.519    c-2.427,0-4.859-0.588-7.077-1.774c-4.877-2.611-7.922-7.693-7.922-13.226V239.934c0-5.532,3.045-10.615,7.922-13.225    c4.879-2.611,10.797-2.324,15.398,0.744l120.5,80.334c4.173,2.781,6.68,7.465,6.68,12.48S344.81,329.967,340.637,332.748z" data-original="#000000" class="active-path" data-old_color="#ffffff" fill="#ffffff"/>
	</g>
</g><g>
	<g>
		<path d="M448.801,64.268h-385.6c-8.284,0-15,6.716-15,15s6.716,15,15,15h385.6c8.284,0,15-6.716,15-15    S457.085,64.268,448.801,64.268z" data-original="#000000" class="active-path" data-old_color="#ffffff" fill="#ffffff"/>
	</g>
</g><g>
	<g>
		<path d="M400.6,0H111.4c-8.284,0-15,6.716-15,15s6.716,15,15,15h289.2c8.284,0,15-6.716,15-15S408.884,0,400.6,0z" data-original="#000000" class="active-path" data-old_color="#ffffff" fill="#ffffff"/>
	</g>
</g></g> </svg>
